<svg xmlns="http://www.w3.org/2000/svg" viewBox="0 0 1273.41 1271.97"><defs><style>.cls-1{fill:#fff;}</style></defs><title>logo-001Asset 1</title><g id="Layer_2" data-name="Layer 2"><g id="Layer_5" data-name="Layer 5"><path class="cls-1" d="M1218.59,382.42C1121.37,156.74,937.32,22.28,634.43,0L555.49,5.26c-45.85,8.46-91.63,16-131.57,31.58C245.67,106.35,115.35,229.86,45,407c-145.75,367,87.71,699.13,340.33,808.71,64,27.77,160.56,65.16,256.12,54.38,57.66-6.5,111.08-6.52,159.63-21,194.73-58.27,340.71-180.46,417.51-356.11,19-43.46,32.71-91.46,43.86-142.09C1291.21,620.23,1258.73,475.58,1218.59,382.42Zm-107-107c10.08,6.5,18.93,24.54,21.06,38.59l-8.78-8.77c.59,2.34,1.17,4.68,1.76,7-15.63-11.68-50-29.84-66.66-22.81q-4.39-9.65-8.77-19.3Zm-66.66,663.1q2.64,19.29,5.27,38.59-6.15,12.28-12.28,24.56l-256.12,8.77c17.69-111.6,34.68-230.57,33.33-363.12h249.1c4.45,29.62,15.61,43.72,22.81,63.15,15,40.6-28.81,121.58-36.84,150.86C1063.88,903.43,1054.21,898.75,1044.92,938.52ZM1034.4,268.4q7.89,13.16,15.79,26.31c-12.07-5.59-30.39-14.52-43.86-21-.58-2.34-1.17-4.68-1.75-7Zm-14,307c14.81,11.59,20.12,17.77,42.11,24.56q2.63,11.4,5.26,22.81H815.12l-3.51-117.54c35,27.75,51.31,68.26,96.48,87.71,11.27,2.49,23.5-8.67,35.09-10.52l35.08,8.77ZM844.94,308.75c-6.72,11.76-17.6,12.06-26.31,21.05-9.15,9.43-10.93,22.75-17.55,35.08l-1.75,3.51q-8.77-53.5-17.54-107l75.43,1.76Q851.09,285.94,844.94,308.75Zm-54.38,314h-321c-22.88-18.41-37.4-45.22-61.4-63.16.92-110.67,28.13-204.11,42.1-296.46l312.26-1.76C769.2,375.46,791.64,492,790.56,622.76ZM473,999.92c7-8.24-2-30.4-3.51-43.86,26.06-33.72,76.16-60.55,94.73-100q4.38-38.6,8.77-77.19l63.15-28.06,3.51-5.27c-26.18-49.4-68.3-83.65-129.81-96.48l280.68-1.75c-.38,85.71,1,170.72-12.28,249.1q-7.89,57-15.79,114l-312.26-1.75ZM1043.17,226.3c12.21,4.64,21.1,18.21,28.07,28.07C1058.25,249.15,1050.5,236.86,1043.17,226.3Zm1.75-36.84L1067.73,214l-10.53,5.26c-10.44-13.33-20.33-19.44-28.06-36.84Zm5.27,63.15-14-1.75q-14-21.06-28.07-42.11Zm-52.63-42.1c-13.74-6.46-25.07-12.7-33.33-24.56C978.75,190.32,991.81,197.07,997.56,210.51Zm0,12.28,1.75,3.51v3.51L987,233.31l19.3,12.28,1.75,3.51c-13.7-1.11-12-5.9-19.29-8.77-29.12-11.37-62,4.41-86,5.26l10.53-10.52q-2.64-8.77-5.27-17.54c10.21-3.92,13.3-11.58,15.79-22.81,4.69-.4,14.26.44,19.3-3.51C962.48,200.76,972.1,217.83,997.56,222.79Zm-84.2-117.54,8.77,10.53L867.74,78.94Zm-100-47.36c7.75,10.75,6.24,6.36,5.27,22.81l35.08,21,5.26-7c18.33,5.3,28,16.12,49.12,17.54l3.51,5.26c-24.18-.27-35.09-18.74-49.12-12.28L880,122.8l-42.1,26.31c8.13,19.82,23.21,19.44,31.58,38.59-18.14-1.76-30.72-4.28-45.61,3.51h-3.51q8.77,26.31,17.54,52.63l-61.4-1.75c-5.89-64.15-34.45-127.41-61.39-173.67,3.66-2.94,3.45-2.8,10.52-3.51-9.53-10.63-22.86-12.25-31.58-24.56C740.1,44.76,777.37,49.64,813.36,57.89ZM557.24,73.68C606,80.87,642.46,50.84,683.55,40.35l7,8.77,5.26,5.26v1.76H674.78L704.6,68.42C725.55,88.76,755.13,202,757.23,242.09L455.5,243.84c27.27-69.3,45.71-149.27,100-191.21C554.25,61.78,554.37,66.09,557.24,73.68ZM357.26,107c26.88-29.22,81.89-44.59,124.55-54.38-6.17,6.36-16.16,10-26.31,12.28,25,14.53,31.77-2.57,59.64-7-2.35-6.89-3.29-6-7-10.53l19.3-5.26h26.32c.58,1.17,1.16,2.34,1.75,3.51-36.25,20.92-50.3,60.82-75.43,93-.59,1.16-1.17,2.33-1.76,3.5h-1.75c7.38-19.53,7.56-66.13-21.05-50.87q-.88-8.77-1.76-17.54C415.89,71,386,114.91,355.51,129.81,361.62,118.57,361.27,120,357.26,107Zm64.91,71.92,3.51-5.26c-7.11-10.4-11.94-15.64-29.83-15.79v-3.51l28.07-17.54c9.84.26,21.29,1.68,26.31,7l3.51,7v1.76L445,161.39h24.56L438,243.84l-138.59,3.51C320,215.36,385.55,193.31,422.17,178.93ZM192.36,350.85l3.51,17.54h1.75c19.85-17.06,14.42-36.64,28.07-61.4l57.89-40.35,89.47-3.5h57.89c-15.5,86.2-42.49,174.65-45.61,277.17-43.48-33.44-109-40.55-178.93-49.12l-29.83,31.57-21-7L150.26,514q6.13-27.18,12.28-54.38l-26.31-7c7.84-38.17,15.84-67.69,26.31-103.5Zm-42.1-12.28,7,1.75C145,365.62,137.83,396.94,116.93,414h-7C110.28,377.28,133.91,359.85,150.26,338.57Zm-35.09,164.9h1.76c10.76,8.39,23.28,37.78,28.07,50.87,6.91,4.31,13.32,5.75,26.31,5.26.09,27.06-1.75,40.94-5.26,61.4l-61.4,1.76C104.92,578,112.62,542.33,115.17,503.47ZM104.65,647.32H152l-8.77,17.54,24.56,45.61,14,52.63,52.62,73.67,22.81,17.55,35.08,150.86-89.46-5.26q-19.3-36-38.6-71.93C130.26,850.23,102.66,758.22,104.65,647.32Zm-40.35-200c8.18,18.12,13.38,26.74,35.09,26.32,6.81,47.57-7,94.21-7,150.86H34.48C38.17,556.32,54.77,502.61,64.3,447.33Zm-29.82,200H92.37c.34,148.18,46.23,258.78,101.75,352.6l-38.6-3.51C90.51,903.45,41.18,799.7,34.48,647.32ZM169.56,1014l35.08,3.51,45.61,59.65c26.12,32.53,66.26,52.76,93,84.2C278.06,1121.69,212.67,1075.44,169.56,1014Zm47.36,5.26,80.7,5.27,22.8,47.36c21.53,39.87,60.69,91.29,121,91.22L399.36,1128v-22.81l-14-12.28c12-12.16,20.1-25.64,19.29-50.87l26.32-14h7c12.19,44.15,30.56,88.4,52.62,124.55l28.07,40.35,12.28,12.27C429.2,1257.67,247.86,1090.36,216.92,1019.21Zm357.87,178.94-33.33,7c-44.73-40-63.49-115.37-86-177.17l301.73,1.75c-4.56,50.91-27.14,92-35.09,136.83C645.26,1166.61,625.83,1180.93,574.79,1198.15Zm259.62-36.84c-30.94,27-37.12,30.34-84.2,43.85h-7c4-12.53,8.62-23.45,8.77-40.34l-17.54,1.75c18.18-36.65,39.39-89.36,42.1-136.83l249.11-8.77c-33.08,54.59-84.23,129.52-143.85,156.13C873.92,1181.82,844.24,1167.54,834.41,1161.31ZM880,1185.87l70.17-56.14c34-30.11,53.37-74,86-105.25,11.73-11.53,48.55-4.31,64.91-10.53h5.26C1067.68,1070.23,954.67,1169.92,880,1185.87ZM1194,866.6c-19.26,44.46-53.5,86.21-68.41,124.55-15.22,9.18-48.31,9.14-70.17,10.52v-1.75c85-26.1,116-107.67,154.37-178.93Q1201.93,843.79,1194,866.6Zm-8.77-468.39c-16.77-27.87-36.1-55.41-52.62-82.45,35.46,29.24,75.63,99.68,84.2,152.62Q1201,433.31,1185.26,398.21Zm47.37,342.08q.06-1,.15-2,2.55-34.07,5.11-68.13c7,18.18-3.31,47.57-5.11,68.13Z"/></g></g></svg>