<svg xmlns="http://www.w3.org/2000/svg" viewBox="0 0 1467.19 1666"><defs><style>.cls-1{fill:#fff;}.cls-2{fill:#de7300;}</style></defs><title>logo-002Asset 3</title><g id="Layer_2" data-name="Layer 2"><g id="Layer_5" data-name="Layer 5"><path class="cls-1" d="M1305.78,577c-97.23-225.68-281.27-360.14-584.16-382.42l-78.94,5.26c-45.85,8.45-91.63,16-131.57,31.58-178.25,69.51-308.57,193-378.92,370.14-145.76,367,87.7,699.12,340.32,808.71,64,27.76,160.56,65.15,256.12,54.38,57.67-6.51,111.09-6.53,159.64-21.05,194.72-58.27,340.71-180.46,417.51-356.11,19-43.46,32.7-91.46,43.86-142.1C1378.39,814.78,1345.91,670.14,1305.78,577Zm-107-107c10.08,6.5,18.93,24.54,21,38.6l-8.77-8.78c.58,2.34,1.17,4.68,1.75,7-15.63-11.68-50-29.83-66.66-22.8q-4.38-9.66-8.77-19.3Zm-66.66,663.11q2.63,19.29,5.26,38.59l-12.28,24.56L869,1205c17.69-111.6,34.68-230.58,33.33-363.13h249.11c4.45,29.63,15.6,43.72,22.8,63.15,15,40.6-28.81,121.59-36.84,150.87C1151.06,1098,1141.4,1093.31,1132.11,1133.08ZM1121.58,463q7.9,13.16,15.79,26.31c-12.06-5.59-30.39-14.52-43.85-21-.59-2.34-1.17-4.68-1.76-7Zm-14,307c14.81,11.58,20.12,17.77,42.1,24.56q2.64,11.4,5.26,22.8H902.3l-3.51-117.53c35,27.74,51.31,68.26,96.49,87.71,11.26,2.48,23.5-8.67,35.08-10.53l35.09,8.78ZM932.13,503.3c-6.72,11.77-17.6,12.07-26.32,21.05-9.15,9.44-10.92,22.75-17.54,35.09L886.51,563q-8.76-53.51-17.54-107l75.43,1.75Zm-54.39,314h-321c-22.88-18.4-37.41-45.21-61.4-63.15.92-110.67,28.13-204.12,42.1-296.47l312.26-1.75C856.39,570,878.82,686.55,877.74,817.31ZM560.23,1194.47c7-8.23-2.05-30.4-3.51-43.85,26-33.73,76.15-60.56,94.73-100q4.38-38.6,8.77-77.19l63.15-28.07,3.51-5.26c-26.19-49.41-68.3-83.66-129.82-96.48l280.68-1.76c-.38,85.72,1,170.73-12.28,249.1q-7.89,57-15.78,114l-312.26-1.75Zm570.12-773.62c12.22,4.64,21.11,18.21,28.07,28.07C1145.44,443.71,1137.69,431.41,1130.35,420.85Zm1.76-36.84,22.8,24.56-10.52,5.27c-10.44-13.33-20.33-19.45-28.07-36.84Zm5.26,63.16-14-1.76-28.07-42.1Zm-52.63-42.1c-13.74-6.46-25.06-12.7-33.33-24.56C1065.94,384.87,1079,391.62,1084.74,405.07Zm0,12.27,1.76,3.51v3.51l-12.28,3.51,19.3,12.28,1.75,3.51c-13.71-1.11-12-5.91-19.3-8.77-29.11-11.37-62,4.41-86,5.26l10.52-10.53q-2.62-8.76-5.26-17.54c10.21-3.91,13.29-11.58,15.79-22.8,4.69-.41,14.26.44,19.29-3.51C1049.66,395.32,1059.29,412.38,1084.74,417.34Zm-84.2-117.53,8.77,10.53L954.93,273.5Zm-100-47.36c7.74,10.74,6.23,6.36,5.26,22.8L940.9,296.3l5.26-7c18.32,5.3,28,16.12,49.12,17.54l3.51,5.26c-24.18-.28-35.1-18.75-49.12-12.28l17.54,17.54-42.1,26.32c8.12,19.81,23.2,19.44,31.57,38.59-18.13-1.76-30.72-4.28-45.61,3.51h-3.5q8.76,26.31,17.54,52.63l-61.4-1.76c-5.89-64.14-34.45-127.4-61.4-173.67,3.66-2.93,3.46-2.8,10.53-3.51-9.54-10.62-22.87-12.24-31.58-24.56C827.28,239.31,864.55,244.19,900.55,252.45ZM644.43,268.23c48.73,7.2,85.22-22.84,126.3-33.33l7,8.77,5.26,5.27v1.75H762L791.79,263c21,20.35,50.53,133.56,52.62,173.67L542.68,438.4c27.27-69.31,45.71-149.27,100-191.22C641.43,256.33,641.55,260.64,644.43,268.23Zm-200,33.33C471.32,272.35,526.33,257,569,247.18c-6.17,6.37-16.17,10-26.32,12.28,25,14.53,31.77-2.56,59.65-7-2.35-6.89-3.3-6-7-10.53l19.3-5.26h26.31l1.76,3.51c-36.25,20.91-50.3,60.81-75.44,93l-1.75,3.51h-1.76c7.38-19.54,7.56-66.13-21.05-50.87q-.87-8.77-1.75-17.55c-37.85-2.67-67.72,41.23-98.24,56.14C448.8,313.12,448.45,314.56,444.45,301.56Zm64.9,71.93,3.51-5.26c-7.1-10.4-11.94-15.64-29.82-15.79v-3.51l28.07-17.54c9.83.25,21.29,1.68,26.31,7l3.51,7v1.76L532.16,356h24.56q-15.79,41.22-31.58,82.45l-138.58,3.5C407.15,409.92,472.74,387.87,509.35,373.49ZM279.55,545.4,283.06,563h1.75c19.85-17.07,14.42-36.65,28.07-61.4l57.89-40.35,89.46-3.51h57.89c-15.5,86.2-42.49,174.65-45.61,277.17-43.48-33.43-109-40.54-178.93-49.12l-29.82,31.58-21-7-5.27-1.75q6.15-27.19,12.28-54.38l-26.31-7c7.85-38.17,15.85-67.69,26.31-103.5Zm-42.11-12.28,7,1.76c-12.27,25.29-19.45,56.61-40.35,73.68h-7C197.46,571.84,221.1,554.41,237.44,533.12ZM202.36,698h1.75c10.77,8.4,23.28,37.79,28.07,50.88,6.92,4.3,13.33,5.75,26.32,5.26.09,27.05-1.75,40.93-5.27,61.4l-61.4,1.75C192.1,772.6,199.81,736.89,202.36,698ZM191.83,841.87H239.2l-8.77,17.54Q242.7,882.23,255,905q7,26.31,14,52.63l52.63,73.68,22.8,17.54q17.55,75.44,35.09,150.87l-89.47-5.27-38.59-71.92C217.45,1044.78,189.85,952.78,191.83,841.87Zm-40.34-200c8.17,18.11,13.38,26.74,35.08,26.31,6.82,47.57-7,94.21-7,150.87H121.66C125.36,750.88,142,697.17,151.49,641.89Zm-29.83,200h57.89c.35,148.18,46.23,258.79,101.75,352.6l-38.59-3.5C177.69,1098,128.36,994.26,121.66,841.87Zm135.08,366.64,35.09,3.51,45.61,59.64c26.11,32.53,66.25,52.77,93,84.2C365.24,1316.24,299.86,1270,256.74,1208.51Zm47.37,5.26L384.8,1219l22.81,47.37c21.53,39.86,60.69,91.28,121,91.22l-42.1-35.09v-22.8l-14-12.28c12-12.16,20.11-25.64,19.3-50.87l26.31-14h7c12.2,44.16,30.56,88.41,52.63,124.55l28.07,40.35,12.28,12.28C516.38,1452.22,335,1284.91,304.11,1213.77ZM662,1392.7l-33.33,7c-44.72-40-63.49-115.38-86-177.18l301.73,1.76c-4.55,50.9-27.13,92-35.08,136.83C732.44,1361.16,713,1375.49,662,1392.7Zm259.63-36.84c-31,27-37.12,30.34-84.2,43.86h-7c4-12.53,8.61-23.45,8.77-40.35l-17.54,1.76c18.18-36.66,39.39-89.36,42.1-136.83l249.1-8.77c-33.07,54.58-84.23,129.51-143.85,156.12C961.11,1376.38,931.43,1362.09,921.6,1355.86Zm45.61,24.56,70.17-56.13c34-30.11,53.36-74,86-105.26,11.72-11.52,48.55-4.3,64.9-10.52h5.27C1154.86,1264.79,1041.85,1364.48,967.21,1380.42Zm314-319.27c-19.26,44.47-53.51,86.22-68.42,124.55-15.22,9.18-48.3,9.14-70.17,10.53v-1.76c85-26.1,116-107.67,154.38-178.93Zm-8.77-468.38c-16.77-27.87-36.11-55.42-52.63-82.45,35.46,29.24,75.64,99.67,84.2,152.62Zm47.36,342.08c0-.67.1-1.35.16-2q2.55-34.06,5.11-68.13c7,18.17-3.31,47.57-5.11,68.13Z"/></g><g id="Layer_3" data-name="Layer 3"><path class="cls-2" d="M1455,416.5c-35-60.71-142-72.12-286.73-43.31,8.34,8,15.35,15.28,21.08,21.58,108.85-24,187.8-21.11,210.82,18.75,54.67,94.7-206.4,382.44-558.91,586s-740.88,290.75-795.56,196c-21.16-36.65,8.53-99.08,73.3-173.64-3.56-10.18-6.24-21.49-9.36-32.68-91.55,107.07-131.5,201.29-97.44,260.3,73.18,126.75,455.49,43,853.9-187S1528.17,543.25,1455,416.5Z"/><path class="cls-2" d="M865.32,1449.08C825.9,1554.63,779,1620,733.59,1620c-109.35,0-198-380-198-787s88.65-777,198-777c44.12,0,89.74,60.23,128.48,158.79q28.29,6.42,54,14.32C868.59,87.14,804.33,0,733.59,0c-146.35,0-265,373-265,833s118.65,833,265,833c71.17,0,135.79-88.21,183.4-231.73C900.69,1439.39,875.36,1446.35,865.32,1449.08Z"/><path class="cls-2" d="M866.09,603.5c-398.41-230-780.72-313.75-853.9-187-33.94,58.78,4.59,152.52,95.4,259.09,2.34-9.39,6-19.39,8.79-29C47.68,568.9,15,503.63,37,465.48c54.68-94.7,434.4-12.47,786.9,191s622.24,496.25,567.57,591c-22.49,39-98.91,42.73-205.62,19.51-8.85,8.9-18.77,18.61-25.37,25,149.17,31.08,258.73,19.41,294.48-42.52C1528.17,1122.75,1264.51,833.53,866.09,603.5Z"/></g></g></svg>